{"glyphs":{":":{"x_min":0,"x_max":282,"ha":282,"o":"m 95 467 q 95 495 121 495 q 127 497 129 497 l 141 498 l 148 498 l 150 498 l 162 497 q 171 494 174 494 q 194 494 194 464 q 195 460 195 458 l 196 448 l 196 431 l 195 421 l 193 409 q 193 383 168 383 q 161 381 159 381 l 148 380 l 140 380 q 116 380 105 387 q 95 394 95 413 l 94 417 l 92 433 l 92 449 l 93 451 l 94 463 q 95 465 95 467 z m 92 77 l 96 96 q 96 120 125 120 l 129 121 l 142 122 l 144 122 l 146 121 l 163 120 q 165 119 166 119 q 194 119 194 87 q 195 83 195 81 l 196 73 l 196 52 l 195 50 l 194 38 q 193 36 193 34 q 193 5 163 5 l 151 3 l 136 3 l 118 6 q 95 6 95 32 l 94 38 l 92 58 l 92 68 l 92 70 z"},"$":{"x_min":0,"x_max":562,"ha":562,"o":"m 457 602 q 457 571 439 571 q 420 571 385 594 q 351 616 328 616 q 305 616 301 600 q 296 583 296 507 q 296 430 311 410 q 317 401 372 368 q 427 335 454 300 q 481 266 481 202 q 481 138 438 86 q 416 59 382 42 q 374 39 349 29 q 324 19 318 15 q 303 5 296 -26 q 289 -58 271 -58 q 246 -58 240 -34 q 230 1 214 12 q 208 17 169 31 q 131 46 101 74 q 72 103 72 131 q 72 154 103 154 q 117 154 155 125 q 192 95 221 95 q 250 95 256 125 q 261 147 261 224 q 261 301 252 314 q 243 327 189 361 q 136 395 109 428 q 83 461 83 521 q 83 581 124 628 q 152 663 209 681 q 238 690 244 696 q 250 701 261 724 q 271 746 281 746 l 291 746 q 317 746 424 650 q 457 621 457 602 z m 248 617 q 248 623 245 623 l 243 623 l 240 622 q 216 622 189 595 q 162 568 162 538 l 162 520 q 164 511 164 509 q 164 479 191 447 q 218 415 238 415 l 240 415 q 247 415 247 457 l 247 462 l 247 468 l 245 491 l 245 494 q 245 497 245 499 l 244 507 l 244 512 l 243 518 l 243 523 l 243 525 l 243 545 l 243 550 l 243 559 l 248 612 z m 315 72 l 320 72 q 349 72 377 104 q 404 135 404 170 l 404 194 q 404 227 373 262 q 342 298 316 298 l 314 298 q 312 298 312 237 l 312 171 l 312 166 q 312 160 312 154 l 311 143 l 311 134 l 311 129 q 311 126 311 123 l 309 99 q 309 96 309 93 l 308 84 q 308 72 315 72 z"},"?":{"x_min":0,"x_max":483,"ha":483,"o":"m 78 547 q 55 547 55 576 q 55 605 70 628 q 86 650 119 672 q 174 707 236 707 l 246 707 q 317 707 369 662 q 422 618 422 545 q 422 456 334 364 q 290 318 278 300 q 267 281 263 245 q 260 209 257 204 q 251 192 233 192 l 224 192 q 204 192 196 212 q 191 225 191 260 q 191 327 257 397 q 296 438 314 470 q 333 502 333 540 q 333 578 307 606 q 282 635 243 635 q 205 635 182 623 q 160 610 136 579 q 112 547 78 547 z m 199 0 q 179 0 179 21 q 177 26 177 28 l 175 43 q 175 45 175 47 l 175 53 l 175 58 l 175 60 q 175 63 175 67 l 177 79 q 178 83 178 86 q 178 106 200 106 q 207 108 208 108 l 219 109 l 229 109 q 269 109 269 84 l 271 75 l 272 63 l 272 42 l 269 21 q 269 0 247 0 q 240 -1 239 -1 l 229 -2 l 219 -2 l 212 -1 l 209 -1 q 203 0 199 0 z"},"<":{"x_min":0,"x_max":579,"ha":579,"o":"m 509 89 l 509 81 q 509 59 498 59 q 470 59 106 266 q 62 291 62 311 q 62 338 91 355 q 100 360 181 400 l 250 436 l 268 444 q 285 453 350 485 q 414 517 450 537 q 485 557 495 557 q 509 557 509 539 l 509 530 q 509 500 469 474 q 429 447 294 380 q 159 312 159 308 q 159 307 304 230 q 449 154 456 149 q 509 116 509 89 z"},"'":{"x_min":0,"x_max":239,"ha":239,"o":"m 148 504 q 148 463 120 463 l 106 463 q 89 463 89 490 l 88 503 l 88 509 l 86 529 l 86 535 l 82 602 l 82 608 l 80 640 q 80 644 80 647 l 79 660 l 79 689 q 80 695 80 698 q 80 717 119 717 l 127 717 q 165 717 165 688 l 164 685 l 164 675 l 159 607 q 158 593 157 584 q 156 576 156 572 l 154 559 q 151 542 151 534 l 149 517 q 148 508 148 504 z"},"=":{"x_min":0,"x_max":588,"ha":588,"o":"m 501 455 q 535 455 535 439 l 535 410 q 535 391 511 391 l 500 391 l 473 391 l 457 390 l 167 390 l 151 390 l 91 390 q 57 390 57 405 l 57 439 q 57 455 146 455 l 234 455 l 239 454 l 283 455 z m 297 267 l 494 267 q 535 267 535 244 l 535 229 q 535 208 526 205 q 516 202 403 202 l 93 202 q 57 202 57 225 l 57 239 q 57 262 72 264 q 88 267 297 267 z"},"a":{"x_min":0,"x_max":519,"ha":519,"o":"m 437 41 q 437 14 425 8 q 414 2 389 2 q 364 2 353 23 q 341 44 333 44 q 329 44 313 32 q 297 21 270 6 q 243 -8 202 -8 q 136 -8 101 26 q 66 60 66 116 q 66 190 111 231 q 157 272 266 301 q 320 315 327 320 q 351 335 351 369 q 351 404 315 428 q 291 444 248 444 q 206 444 166 416 q 125 387 96 387 q 72 387 72 419 q 72 452 129 481 q 186 510 252 510 q 345 510 392 466 q 416 443 425 416 q 434 389 434 344 l 422 130 q 422 106 429 76 q 437 46 437 41 z m 352 223 q 352 253 333 253 q 260 253 186 210 q 133 179 133 132 l 133 122 q 133 94 156 78 q 178 62 208 62 l 211 62 q 266 62 307 96 q 349 130 349 173 q 350 183 350 187 l 352 201 l 352 207 l 352 217 z"},"L":{"x_min":0,"x_max":509,"ha":509,"o":"m 297 5 q 171 5 135 11 q 98 17 91 29 q 84 42 83 241 l 83 590 l 83 623 q 83 634 83 646 l 82 667 l 82 677 q 82 703 107 703 l 118 703 q 147 703 156 698 q 164 692 167 670 q 171 647 171 380 q 171 113 180 100 q 196 76 322 76 q 447 76 465 68 q 483 61 483 32 q 483 3 468 3 l 449 3 l 374 6 l 341 5 z"},"3":{"x_min":0,"x_max":555,"ha":555,"o":"m 148 664 q 213 699 289 699 q 365 699 406 657 q 448 616 448 559 q 448 503 431 471 q 414 438 387 413 q 360 388 360 384 q 360 383 398 359 q 484 306 484 208 q 484 110 418 53 q 352 -5 255 -5 l 239 -5 q 182 -5 122 29 q 61 63 61 92 l 61 104 q 61 128 94 128 q 107 128 159 99 q 211 69 257 69 q 324 69 360 107 q 397 146 397 201 q 397 256 359 291 q 321 325 258 333 q 222 338 216 342 q 200 352 200 374 q 200 392 251 407 q 362 441 362 544 q 362 580 333 602 q 303 624 260 624 q 216 624 162 597 q 108 570 93 570 q 79 570 79 586 q 79 603 96 624 q 113 645 148 664 z"},";":{"x_min":0,"x_max":290,"ha":290,"o":"m 99 451 l 101 467 q 101 496 131 496 q 134 497 136 497 l 144 498 l 159 498 l 173 496 q 201 496 201 464 q 202 460 202 458 l 203 448 l 203 431 l 199 407 q 199 382 172 382 l 156 380 l 144 380 l 129 382 q 112 382 105 392 q 99 402 99 431 l 99 449 z m 201 56 l 198 16 q 198 -30 160 -80 q 123 -130 100 -130 l 97 -130 q 85 -130 85 -113 l 85 -106 q 85 -104 97 -89 q 129 -50 129 -11 q 129 2 120 10 q 110 18 106 29 q 102 39 102 70 q 102 100 110 111 q 118 123 144 123 l 156 123 q 162 122 166 122 q 200 122 200 94 l 201 87 l 201 73 z"},"J":{"x_min":0,"x_max":449,"ha":449,"o":"m 176 78 q 234 78 264 162 q 278 203 278 327 l 278 331 q 278 458 274 488 q 271 518 263 560 q 255 602 255 641 q 255 679 268 690 q 281 702 312 702 q 344 702 349 694 q 370 664 370 577 l 370 556 l 368 515 q 366 473 366 462 l 365 408 q 365 381 365 354 q 365 146 341 92 q 316 39 275 16 q 234 -8 187 -8 l 177 -8 q 127 -8 81 17 q 22 47 22 82 l 22 90 q 22 120 52 120 q 72 120 109 99 q 146 78 176 78 z"},"V":{"x_min":0,"x_max":606,"ha":606,"o":"m 46 694 q 95 694 115 656 q 134 618 221 379 q 307 141 309 141 q 311 141 398 380 q 486 619 498 645 q 509 670 522 682 q 534 694 560 694 q 585 694 585 678 q 585 669 543 560 q 500 451 428 240 q 356 30 336 12 q 325 1 298 1 q 272 1 256 38 q 239 74 210 157 q 180 241 157 305 l 126 389 q 114 424 112 431 l 61 570 q 21 668 21 683 q 21 694 46 694 z"},"\"":{"x_min":0,"x_max":379,"ha":379,"o":"m 295 509 q 295 468 271 468 l 253 468 q 237 468 237 488 q 236 498 236 500 l 235 513 l 235 520 l 232 555 l 232 562 l 231 571 l 231 577 l 229 606 q 229 611 229 616 l 229 631 l 229 638 l 228 647 l 228 657 l 228 670 l 228 686 q 228 708 234 714 q 241 721 270 721 l 275 721 q 311 721 311 694 l 311 688 l 305 602 q 304 598 302 576 q 300 555 297 534 q 295 514 295 509 z m 132 504 q 132 468 102 468 l 93 468 q 68 468 68 598 l 67 604 q 67 608 67 611 l 67 618 l 67 627 l 66 643 l 66 649 l 65 662 l 65 691 q 65 721 97 721 l 123 721 q 128 720 131 720 q 148 720 148 697 l 148 684 l 148 681 l 147 665 l 147 658 l 142 597 q 142 594 139 572 q 137 550 135 530 q 132 510 132 504 z"},"7":{"x_min":0,"x_max":550,"ha":550,"o":"m 110 692 l 143 692 l 225 689 l 310 691 q 439 691 467 686 q 494 682 494 664 q 494 627 451 546 q 312 281 246 84 q 221 11 219 8 q 210 -9 188 -9 l 177 -9 q 144 -9 144 15 q 144 57 200 190 q 256 323 323 457 q 390 590 390 596 q 390 616 277 616 l 172 614 q 103 614 84 620 q 65 625 65 651 q 65 677 74 684 q 83 692 110 692 z"},"S":{"x_min":0,"x_max":556,"ha":556,"o":"m 78 155 q 96 155 132 124 q 168 93 203 80 q 238 67 290 67 q 341 67 378 98 q 415 129 415 181 q 415 233 366 271 q 344 288 249 332 q 154 375 122 406 q 90 437 79 468 q 67 499 67 537 q 67 610 126 659 q 186 708 283 708 q 354 708 417 671 q 481 635 481 596 q 481 566 448 566 q 433 566 403 588 q 373 610 345 622 q 317 633 269 633 q 221 633 187 606 q 153 580 153 544 q 153 491 199 455 q 226 434 323 390 q 419 347 461 302 q 503 257 503 191 l 503 175 q 503 139 483 101 q 463 63 430 39 q 368 -6 282 -6 q 196 -6 132 30 q 90 54 68 75 q 47 97 47 123 q 47 155 78 155 z"},"}":{"x_min":0,"x_max":358,"ha":358,"o":"m 213 110 l 216 23 q 216 -67 177 -111 q 138 -156 66 -156 q 48 -156 48 -144 q 48 -124 59 -107 q 61 -104 91 -90 q 122 -75 134 -53 q 147 -30 147 34 l 145 83 q 144 107 144 147 q 144 231 207 273 q 229 289 229 291 q 229 293 217 301 q 205 309 189 322 q 173 334 159 364 q 145 394 145 462 l 147 560 q 147 612 134 633 q 121 654 102 665 q 99 666 83 673 q 67 680 64 682 q 48 695 48 724 q 48 736 67 736 l 78 736 q 109 736 140 720 q 170 705 189 679 q 217 640 217 543 l 213 445 q 213 394 227 368 q 241 343 268 331 q 308 312 308 289 q 308 266 275 253 q 243 240 228 213 q 213 186 213 110 z"},"Z":{"x_min":0,"x_max":578,"ha":578,"o":"m 45 34 l 45 48 q 45 75 226 337 q 407 599 407 606 q 407 622 390 626 q 373 630 241 630 q 109 630 83 637 q 57 644 57 677 q 57 700 79 700 l 94 700 l 110 700 l 143 698 q 159 698 192 698 l 312 698 q 485 698 496 696 q 527 691 527 665 q 527 639 506 603 q 484 567 325 340 q 165 112 165 95 q 165 75 327 75 q 489 75 514 68 q 539 61 539 32 q 539 3 518 3 l 502 3 l 387 6 l 268 5 q 104 5 83 8 q 45 12 45 34 z"},"x":{"x_min":0,"x_max":493,"ha":493,"o":"m 239 195 q 237 195 187 114 q 136 32 130 25 q 109 1 72 1 l 61 1 q 45 1 45 6 l 45 13 q 45 18 118 134 q 191 250 191 263 q 191 276 125 382 q 59 487 59 499 q 59 511 96 511 q 133 511 149 494 q 165 478 205 408 q 245 339 253 339 q 256 339 297 406 q 338 474 353 492 q 368 510 398 510 q 399 510 399 510 q 431 510 431 503 q 431 493 367 394 q 304 294 304 270 q 304 254 375 141 q 446 27 447 12 q 447 1 413 1 l 401 1 q 369 1 354 20 q 347 27 295 111 q 243 195 239 195 z"},")":{"x_min":0,"x_max":350,"ha":350,"o":"m 81 -151 l 72 -151 q 52 -151 52 -134 q 52 -127 75 -92 q 99 -57 119 -24 q 138 8 154 55 q 190 165 190 290 q 190 490 107 628 q 52 720 52 727 q 52 740 76 740 q 101 740 140 691 q 220 593 253 443 q 269 370 269 297 l 269 286 q 269 144 210 13 q 184 -45 144 -98 q 104 -151 81 -151 z"},"&":{"x_min":0,"x_max":684,"ha":684,"o":"m 551 315 q 582 315 582 282 q 582 270 573 243 q 564 217 564 182 q 564 147 573 130 q 582 112 612 82 q 643 53 643 49 q 643 20 611 20 q 580 20 547 39 q 514 58 494 58 q 475 58 449 49 q 423 40 352 28 q 281 17 280 17 l 266 17 q 191 17 141 57 q 109 83 93 119 q 77 156 77 190 l 77 204 q 77 284 162 357 q 211 400 211 425 q 211 432 199 457 q 187 482 177 510 q 167 538 167 586 q 167 634 206 670 q 246 707 309 707 q 372 707 415 664 q 458 621 458 552 q 458 507 405 450 q 352 393 352 367 q 352 320 416 258 q 442 232 466 232 q 490 232 512 274 q 534 315 551 315 z m 387 571 l 386 585 q 386 609 366 626 q 346 644 327 644 l 313 644 q 288 644 268 619 q 249 594 249 566 l 249 553 q 249 520 281 459 q 292 439 298 439 l 301 439 q 320 439 354 482 q 388 526 388 562 l 388 568 z m 413 128 l 413 134 q 413 135 369 187 q 325 239 292 286 q 258 333 254 333 l 251 333 q 226 333 183 280 q 156 248 156 208 l 156 192 q 156 142 196 106 q 235 70 291 70 l 294 70 l 299 71 q 335 71 374 92 q 413 112 413 128 z"},"_":{"x_min":0,"x_max":528,"ha":528,"o":"m 494 -83 q 524 -83 524 -98 l 524 -125 q 524 -138 261 -138 l 123 -138 l 105 -138 l 54 -138 q 6 -138 6 -122 l 6 -96 q 6 -83 270 -83 l 315 -83 z"},"v":{"x_min":0,"x_max":490,"ha":490,"o":"m 48 504 q 92 504 114 462 q 129 434 188 279 q 246 124 251 124 q 254 124 313 281 q 373 438 379 449 q 408 504 437 504 l 447 504 q 469 504 469 492 q 469 483 446 431 q 423 378 363 221 q 304 63 290 33 q 275 2 245 2 q 215 2 197 41 q 187 64 131 210 q 75 355 48 420 q 20 484 20 496 q 20 504 48 504 z"},"O":{"x_min":0,"x_max":725,"ha":725,"o":"m 86 336 l 86 372 q 86 445 112 515 q 139 585 176 628 q 253 717 368 717 l 378 717 q 498 717 573 620 q 610 573 631 507 q 652 440 652 369 l 652 346 q 652 344 652 343 q 652 272 630 203 q 586 65 477 12 q 429 -11 371 -11 q 246 -11 172 77 q 129 128 107 196 q 86 264 86 336 z m 361 63 l 375 63 q 456 63 508 145 q 560 227 560 353 l 560 362 q 560 492 504 571 q 480 604 447 624 q 414 644 377 644 l 370 644 q 285 644 231 564 q 208 531 193 477 q 177 424 177 372 l 177 335 q 177 333 177 332 q 177 278 191 229 q 221 125 287 85 q 324 63 361 63 z"},"(":{"x_min":0,"x_max":351,"ha":351,"o":"m 301 727 q 301 719 259 649 q 217 580 200 528 q 164 419 164 294 q 164 169 190 88 q 216 7 242 -36 q 300 -133 300 -135 q 300 -152 281 -152 l 272 -152 q 246 -152 206 -100 q 123 10 96 148 q 81 226 81 274 l 81 306 q 81 450 146 587 q 178 655 229 713 q 252 740 276 740 q 301 740 301 727 z"},"C":{"x_min":0,"x_max":654,"ha":654,"o":"m 597 584 q 597 552 561 552 q 554 552 521 576 q 487 601 450 617 q 414 632 362 632 q 264 632 205 551 q 146 470 146 339 q 146 280 163 230 q 197 128 276 90 q 313 72 359 72 q 437 72 510 123 q 562 159 577 159 q 602 159 602 128 q 602 113 585 90 q 568 67 525 43 q 443 -1 364 -1 l 348 -1 q 287 -1 231 24 q 119 77 76 206 q 54 271 54 334 l 54 369 q 54 431 77 495 q 100 560 140 606 q 181 653 237 678 q 293 704 354 704 l 370 704 q 442 704 507 670 q 597 623 597 584 z"},"W":{"x_min":0,"x_max":867,"ha":867,"o":"m 58 688 q 96 688 116 641 q 130 607 186 394 q 242 181 252 181 q 262 181 325 403 q 388 625 398 646 q 412 674 450 674 q 471 674 488 622 q 492 609 553 393 q 615 176 624 176 q 633 176 690 391 q 747 607 762 641 q 783 689 818 689 q 839 689 839 672 q 839 666 805 539 l 778 439 q 756 355 746 319 q 735 282 724 239 q 712 196 703 164 l 697 139 q 688 104 684 89 l 676 64 q 659 17 618 17 q 594 17 567 91 q 540 165 499 306 q 458 448 450 472 l 443 496 l 435 515 q 430 515 369 314 q 308 113 300 93 q 271 19 243 19 q 204 19 190 62 q 184 83 173 125 q 163 166 155 193 q 148 219 141 246 q 134 273 96 412 q 59 552 43 602 q 28 652 28 660 q 28 688 58 688 z"},"A":{"x_min":0,"x_max":635,"ha":635,"o":"m 586 39 q 586 14 542 14 q 519 14 501 46 q 483 79 463 132 q 443 185 434 192 q 419 205 309 205 l 286 205 l 274 205 q 263 204 234 204 q 206 204 194 195 q 183 185 160 124 q 138 63 121 38 q 105 12 77 12 q 48 12 48 26 l 48 35 q 48 83 260 644 q 276 686 286 697 q 296 708 320 708 q 344 708 354 697 q 365 686 376 654 q 467 415 571 94 q 586 48 586 39 z m 232 274 l 259 274 l 263 274 l 313 275 q 408 275 408 287 l 408 290 q 408 296 381 378 q 354 459 335 523 q 316 587 314 587 q 312 587 304 560 q 296 533 291 518 q 286 503 283 492 q 280 480 271 452 q 261 425 255 402 q 249 379 233 334 q 217 289 217 285 l 217 282 l 217 279 q 217 274 232 274 z"},"f":{"x_min":0,"x_max":347,"ha":347,"o":"m 289 735 q 349 735 349 700 q 349 662 311 662 l 273 664 q 199 664 199 557 q 199 533 243 507 q 286 481 286 456 q 286 446 256 433 q 226 420 214 391 q 196 345 196 192 q 196 40 192 24 q 187 2 149 2 l 139 2 q 114 2 114 66 l 114 77 q 113 88 113 100 l 113 134 l 113 214 q 113 366 106 391 q 99 416 77 434 q 54 452 54 459 q 54 480 79 504 q 104 528 110 543 q 116 557 119 572 l 122 594 q 136 690 202 721 q 232 735 267 735 z"},"Q":{"x_min":0,"x_max":729,"ha":729,"o":"m 85 361 l 85 389 q 85 452 104 514 q 124 574 159 618 q 235 711 356 711 q 477 711 554 624 q 603 570 627 499 q 651 428 651 354 l 651 341 q 651 341 651 339 q 651 194 578 95 q 548 54 547 47 q 547 27 592 -13 q 636 -53 636 -63 q 636 -68 624 -68 l 612 -69 q 583 -64 572 -64 l 550 -65 l 528 -65 q 451 -65 355 -27 q 259 11 201 66 q 144 120 115 199 q 85 278 85 361 z m 379 640 l 363 640 q 327 640 292 618 q 222 573 194 477 q 178 419 178 367 l 178 347 l 178 337 q 178 273 195 222 q 211 171 234 141 q 258 110 294 91 q 330 71 365 71 l 372 71 q 403 71 417 88 q 421 94 424 121 q 429 172 491 182 q 511 185 526 208 q 560 258 560 350 l 560 379 q 560 433 545 481 q 517 578 454 618 q 419 640 379 640 z"},"w":{"x_min":0,"x_max":721,"ha":721,"o":"m 40 500 q 86 500 102 469 q 118 437 164 290 q 209 144 213 144 q 226 144 293 366 q 316 440 322 456 q 338 496 365 496 q 392 496 404 470 q 408 462 458 302 q 507 142 519 142 q 522 142 567 288 q 612 435 622 456 q 644 500 678 500 q 699 500 699 492 q 699 484 672 402 q 645 320 628 264 q 611 208 602 182 q 594 156 576 100 q 559 44 556 37 q 542 10 504 10 q 489 10 470 52 q 451 95 407 227 q 362 358 357 358 l 310 219 q 266 89 254 61 q 232 11 203 11 q 174 11 159 50 l 125 159 q 115 190 110 207 q 104 224 82 295 q 60 366 41 421 q 22 476 22 488 q 22 500 40 500 z"},"-":{"x_min":0,"x_max":357,"ha":357,"o":"m 256 314 q 314 314 314 293 l 314 263 q 314 244 209 244 l 75 244 q 44 244 44 268 l 44 286 q 44 309 53 311 q 62 313 184 313 l 236 314 z"},"E":{"x_min":0,"x_max":556,"ha":556,"o":"m 484 664 q 484 643 455 637 q 425 632 320 632 q 216 632 198 609 q 180 586 180 466 q 180 433 232 423 q 240 421 326 416 q 411 411 421 407 q 437 401 437 373 q 437 345 421 340 q 406 334 314 327 q 222 320 202 310 q 172 294 172 255 q 172 112 196 88 q 210 74 304 74 l 338 73 q 355 73 403 73 q 451 73 474 67 q 497 61 497 39 q 497 17 474 10 q 460 5 355 5 l 303 5 q 175 5 113 26 q 86 35 86 67 l 86 83 l 94 247 q 94 249 98 306 q 101 362 101 397 l 88 626 q 88 670 114 678 q 186 699 408 699 l 425 700 q 484 700 484 664 z"},"s":{"x_min":0,"x_max":457,"ha":457,"o":"m 239 515 q 290 515 339 490 q 389 466 389 438 q 389 410 358 410 q 350 410 305 431 q 261 451 225 451 q 188 451 164 434 q 140 417 140 386 q 140 356 174 334 q 194 320 264 292 q 334 265 363 239 q 407 200 407 139 q 407 78 358 37 q 309 -4 233 -4 l 220 -4 q 160 -4 103 25 q 46 54 46 85 q 46 116 74 116 q 83 116 132 88 q 181 60 227 60 q 272 60 298 80 q 325 101 325 135 q 325 169 288 194 q 270 206 203 233 q 135 260 108 283 q 61 322 61 383 q 61 443 109 479 q 158 515 226 515 z"},">":{"x_min":0,"x_max":579,"ha":579,"o":"m 71 99 q 71 124 127 158 q 184 192 304 249 q 425 306 425 312 q 425 317 287 388 q 149 459 111 483 q 72 507 72 536 q 72 564 81 564 q 90 564 164 523 q 238 482 336 430 q 434 379 484 348 q 515 329 515 305 q 515 281 473 259 q 96 65 81 65 q 71 65 71 90 z"},"l":{"x_min":0,"x_max":262,"ha":262,"o":"m 190 59 l 190 43 q 190 14 185 7 q 179 0 143 0 l 135 0 q 114 0 106 7 q 99 15 93 51 q 87 87 87 260 l 87 522 q 87 569 82 622 q 77 674 77 696 q 77 718 84 726 q 91 734 126 734 l 133 734 q 154 734 159 726 q 164 717 166 689 q 169 661 169 431 l 169 405 l 169 337 l 171 279 q 171 271 171 262 l 174 180 q 174 166 182 116 q 190 66 190 59 z"},"8":{"x_min":0,"x_max":558,"ha":558,"o":"m 463 544 q 463 497 444 463 q 425 430 413 418 q 400 406 387 395 q 374 383 374 382 q 374 380 406 352 q 482 286 482 201 l 482 189 q 482 108 425 51 q 367 -7 276 -7 q 185 -7 129 46 q 104 71 89 107 q 75 142 75 178 l 75 188 q 75 271 145 341 q 178 374 178 374 q 178 378 168 386 l 160 392 q 94 444 94 537 q 94 572 111 606 q 127 641 155 666 q 208 711 286 711 q 365 711 414 663 q 463 615 463 544 z m 396 524 l 396 534 q 396 573 363 601 q 330 628 283 628 l 275 628 l 271 627 q 224 627 193 600 q 163 573 163 536 l 163 533 q 163 495 197 464 q 243 422 294 422 q 324 422 360 454 q 396 487 396 524 z m 291 70 q 341 70 377 103 q 413 135 413 177 l 413 181 q 413 235 364 280 q 316 324 258 324 l 253 324 l 250 324 q 219 324 182 286 q 145 249 145 203 l 145 186 q 145 141 183 106 q 221 71 264 71 l 272 70 z"},"\\":{"x_min":0,"x_max":405,"ha":405,"o":"m 34 729 l 50 729 q 78 729 96 688 q 170 515 208 412 q 247 309 315 136 q 384 -36 384 -47 q 384 -59 350 -59 q 329 -59 305 -6 q 213 203 48 646 q 23 715 23 718 q 23 729 34 729 z"},"e":{"x_min":0,"x_max":531,"ha":531,"o":"m 473 109 q 473 73 421 42 q 355 1 283 1 l 271 1 q 182 1 120 63 q 89 94 70 142 q 51 189 51 243 q 51 358 124 438 q 155 473 200 492 q 246 511 293 511 l 305 511 q 372 511 419 469 q 444 447 460 411 q 476 376 476 342 l 476 331 q 476 286 437 274 q 414 268 307 261 q 200 254 187 251 q 141 240 141 217 q 141 153 183 113 q 226 73 278 73 q 331 73 386 103 q 442 132 455 132 q 473 132 473 109 z m 171 315 l 188 315 l 190 316 l 270 318 q 392 318 392 332 l 392 338 l 392 342 q 392 385 357 417 q 322 448 281 448 l 263 448 q 222 448 182 412 q 142 375 142 329 l 142 323 q 142 315 171 315 z"},"b":{"x_min":0,"x_max":556,"ha":556,"o":"m 74 680 q 74 708 84 721 q 93 733 120 733 l 130 733 q 148 733 153 715 q 159 698 159 645 l 157 554 q 157 474 171 474 q 173 474 192 484 q 210 495 234 504 q 257 513 299 513 q 341 513 379 492 q 494 428 494 240 l 494 228 q 494 181 477 137 q 444 52 382 18 q 349 0 312 0 l 301 0 q 257 0 206 31 q 181 45 177 45 q 173 45 158 35 q 143 25 128 25 q 103 25 95 58 q 91 75 91 160 l 89 253 q 89 259 82 423 l 82 435 l 80 457 q 78 512 78 524 l 77 546 q 76 557 76 568 l 76 580 q 75 591 75 602 l 74 657 z m 172 272 l 172 244 q 172 145 195 110 q 224 64 279 64 l 289 64 q 341 64 375 118 q 410 172 410 250 l 410 274 q 410 349 376 399 q 342 448 288 448 l 283 448 q 231 448 193 389 q 175 360 174 300 l 173 289 q 172 278 172 272 z"},"%":{"x_min":0,"x_max":782,"ha":782,"o":"m 337 540 l 337 511 q 337 447 302 393 q 267 338 211 338 l 197 338 q 145 338 108 392 q 72 445 72 510 l 72 537 q 72 605 110 649 q 148 693 194 693 l 204 693 l 209 692 q 265 692 301 647 q 337 602 337 540 z m 194 -15 l 186 -15 q 165 -15 165 -5 q 165 11 561 637 q 590 683 615 683 l 623 683 q 644 683 644 674 q 644 656 239 16 q 219 -15 194 -15 z m 589 341 l 599 341 q 654 341 689 291 q 723 241 723 167 l 723 161 q 723 90 688 42 q 652 -7 594 -7 l 589 -7 q 539 -7 502 39 q 465 85 465 156 l 465 179 q 465 248 502 294 q 540 341 589 341 z m 196 395 l 202 395 l 205 395 q 236 395 254 434 q 271 474 271 520 q 271 567 254 602 q 236 637 212 637 l 200 637 q 173 637 154 602 q 135 566 135 521 l 135 507 q 135 462 152 428 q 169 395 196 395 z m 670 163 q 670 210 652 245 q 633 279 607 279 l 596 279 q 571 279 552 245 q 533 210 533 171 l 533 146 q 533 100 553 68 q 573 37 602 37 l 605 37 q 628 37 648 66 q 669 95 669 135 l 670 142 l 670 156 z"},"m":{"x_min":0,"x_max":805,"ha":805,"o":"m 122 492 q 142 492 152 474 q 167 445 170 445 q 172 445 217 466 q 262 488 302 488 q 365 488 410 447 q 437 422 441 422 q 445 422 474 447 q 534 499 605 499 q 677 499 708 433 q 740 367 740 177 l 740 74 q 740 36 730 25 q 720 15 696 15 q 672 15 667 30 q 661 44 661 190 q 661 336 648 370 q 636 403 616 417 q 596 432 563 432 q 530 432 506 409 q 482 386 472 352 q 461 317 455 188 q 448 60 446 50 q 441 29 405 29 q 368 29 361 46 q 346 83 346 273 q 346 357 332 391 q 313 435 268 435 q 244 435 214 416 q 185 397 167 360 q 148 323 148 162 l 148 142 l 147 123 q 146 110 146 72 q 146 34 139 25 q 132 16 108 16 q 83 16 76 31 q 69 46 69 87 l 69 168 q 69 386 83 459 q 90 492 122 492 z"},"#":{"x_min":0,"x_max":604,"ha":604,"o":"m 521 439 q 513 437 484 434 q 455 432 447 424 q 439 417 435 397 q 419 324 419 293 q 419 279 452 275 q 505 269 513 262 q 520 256 520 242 q 520 228 509 220 q 497 212 460 210 q 423 208 410 192 q 396 177 383 107 q 370 38 364 28 q 352 10 327 10 q 309 10 309 37 q 309 41 321 108 q 333 175 333 191 q 333 206 276 206 q 220 206 210 189 q 209 188 196 121 q 182 53 176 36 q 165 6 146 6 q 116 6 116 23 q 116 26 127 88 q 139 150 139 176 q 139 201 99 207 q 60 213 60 230 q 60 251 81 262 l 95 267 l 110 270 l 126 272 q 150 278 161 292 q 183 321 183 390 q 183 417 170 425 q 165 428 127 432 q 89 437 89 458 q 89 480 111 489 q 113 490 150 496 q 187 502 198 513 q 210 525 223 596 q 235 667 240 677 q 249 696 277 696 q 295 696 295 669 q 295 659 285 602 l 272 531 q 272 511 281 506 q 289 500 359 500 q 386 500 395 517 q 396 520 408 580 q 420 641 424 653 q 436 690 460 690 q 485 690 485 671 l 468 553 q 468 527 476 516 q 484 504 514 496 q 544 487 544 468 q 544 448 521 439 z m 382 429 l 382 432 q 382 438 365 438 l 334 438 l 332 438 l 320 438 q 264 438 252 426 q 240 414 240 377 l 218 273 l 218 271 q 218 266 231 266 l 234 266 l 237 266 l 254 268 l 269 269 q 274 270 277 270 l 283 271 l 310 272 q 343 272 350 285 q 356 298 362 338 q 368 378 375 399 q 382 419 382 429 z"},",":{"x_min":0,"x_max":279,"ha":279,"o":"m 92 -138 l 89 -138 q 75 -138 75 -117 l 75 -115 q 75 -110 86 -98 q 119 -61 120 -15 q 120 -4 111 2 q 103 9 97 18 q 92 27 92 61 q 92 94 100 105 q 108 117 137 117 l 144 117 q 174 117 184 108 q 194 99 194 68 l 194 54 l 194 50 l 193 40 l 192 25 q 192 -18 163 -73 q 148 -100 125 -119 q 102 -138 92 -138 z"},"n":{"x_min":0,"x_max":543,"ha":543,"o":"m 68 164 l 72 284 l 72 335 l 73 375 l 73 388 l 74 414 q 74 475 82 485 q 90 496 115 496 q 141 496 146 489 q 152 482 157 461 q 162 440 168 440 q 171 440 193 457 q 257 505 322 505 l 335 505 q 401 505 437 457 q 473 409 473 307 l 474 294 q 474 281 474 267 l 475 241 l 476 201 l 479 98 l 479 50 q 479 15 454 15 l 442 15 q 409 15 403 38 q 393 77 393 214 q 393 351 369 397 q 345 444 288 444 q 257 444 225 425 q 193 406 174 371 q 154 335 154 198 q 154 62 144 34 q 138 15 103 15 q 68 15 68 44 z"},"h":{"x_min":0,"x_max":543,"ha":543,"o":"m 414 9 q 389 9 383 37 q 376 65 376 220 q 376 375 366 399 q 348 439 303 439 q 274 439 250 424 q 208 400 190 363 q 172 325 172 199 q 172 74 165 32 q 161 7 139 7 q 96 7 91 35 q 90 40 90 200 q 90 361 83 510 q 76 658 76 678 q 76 698 84 708 q 92 717 120 717 q 147 717 152 700 q 160 674 160 596 l 160 583 q 161 569 161 555 l 160 513 q 160 477 173 477 q 176 477 190 484 q 242 513 294 513 q 398 513 436 430 q 458 379 458 184 q 458 168 458 153 l 458 106 l 460 33 q 460 9 414 9 z"},"z":{"x_min":0,"x_max":480,"ha":480,"o":"m 213 5 q 69 5 59 7 q 41 11 41 26 l 41 37 q 41 61 179 243 q 318 425 318 431 q 318 443 200 443 q 81 443 63 453 q 51 459 51 490 q 51 509 79 509 l 91 509 l 179 507 l 270 507 q 402 507 412 505 q 435 502 435 477 q 435 453 296 271 q 157 88 157 78 q 157 69 275 69 q 393 69 418 63 q 444 56 444 22 q 444 2 417 2 l 405 2 l 317 5 z"},"B":{"x_min":0,"x_max":603,"ha":603,"o":"m 100 567 q 100 683 107 690 q 120 703 242 703 l 284 704 q 391 704 442 661 q 494 619 494 539 q 494 458 447 412 q 413 379 413 375 q 413 372 430 363 q 531 310 531 197 q 531 146 510 108 q 490 69 459 47 q 403 5 292 5 l 250 5 l 240 5 l 229 5 q 120 5 107 23 q 102 32 102 151 l 101 230 l 100 253 q 99 275 99 287 l 96 342 l 95 353 l 95 364 l 99 465 l 100 511 z m 202 615 q 178 615 173 599 q 171 590 171 517 l 171 501 q 171 434 173 428 q 178 416 204 416 l 238 416 l 243 417 l 288 418 q 292 418 296 418 q 347 418 387 446 q 426 473 426 518 l 426 530 q 426 571 389 594 q 352 617 285 617 l 244 617 l 239 617 l 222 616 l 214 616 q 205 615 202 615 z m 258 323 l 228 323 q 187 323 179 317 q 171 312 171 275 l 171 157 q 171 106 177 98 q 183 90 221 90 l 287 90 l 292 90 l 308 91 q 313 91 318 91 q 380 91 420 122 q 459 153 459 193 l 459 208 q 459 266 401 299 q 358 323 258 323 z"},"K":{"x_min":0,"x_max":619,"ha":619,"o":"m 193 405 q 218 405 358 577 q 413 643 426 656 q 463 692 501 692 q 519 692 519 682 q 519 679 411 548 q 303 417 303 396 q 303 376 506 96 q 513 86 540 54 q 567 22 567 14 q 567 9 527 9 q 486 9 459 36 q 450 45 359 176 q 267 308 242 308 q 213 308 202 276 q 191 245 191 143 q 191 42 185 24 q 179 6 153 6 q 126 6 117 14 q 107 22 103 42 q 89 109 89 378 l 89 396 q 89 632 104 676 q 112 699 151 699 q 176 699 184 683 q 188 674 188 589 l 183 431 q 183 405 193 405 z"},"R":{"x_min":0,"x_max":608,"ha":608,"o":"m 221 704 l 302 704 q 452 704 493 604 q 509 566 509 517 q 509 467 488 428 q 467 389 431 360 q 395 332 395 317 q 395 316 465 177 l 503 100 q 512 83 529 54 q 545 24 545 21 q 545 10 510 10 q 475 10 454 38 q 453 39 402 136 q 350 233 315 267 q 281 301 231 301 q 202 301 195 287 q 188 273 188 221 l 189 206 q 189 191 189 173 l 189 134 q 189 53 184 30 q 178 7 154 7 q 110 7 104 28 q 102 40 102 129 l 98 314 l 96 357 q 96 362 98 399 l 102 571 q 102 678 114 691 q 125 704 221 704 z m 299 620 l 245 620 q 188 620 178 604 q 172 594 172 500 l 172 462 q 172 408 175 402 q 181 388 201 388 l 242 388 l 246 388 l 280 390 q 285 390 290 390 q 360 390 400 424 q 440 458 440 507 l 440 517 q 440 563 403 592 q 366 620 299 620 z"},"T":{"x_min":0,"x_max":558,"ha":558,"o":"m 51 674 q 51 693 80 697 q 108 702 288 702 l 406 702 l 417 702 q 470 702 489 696 q 509 689 509 673 l 509 663 q 509 639 493 633 q 491 632 416 625 q 340 617 331 597 q 322 576 322 307 q 322 37 320 23 q 317 1 284 1 l 273 1 q 240 1 238 23 q 235 46 235 312 q 235 579 226 599 q 216 618 145 623 q 75 628 63 634 q 51 640 51 665 z"},"P":{"x_min":0,"x_max":567,"ha":567,"o":"m 320 698 l 341 698 q 429 698 478 645 q 519 601 519 535 q 519 412 422 344 q 378 313 309 303 q 193 287 188 281 q 170 264 170 157 q 170 50 164 28 q 159 6 121 6 l 111 6 q 82 6 82 35 l 82 44 l 82 55 l 82 258 l 82 300 l 82 311 l 82 332 l 83 342 q 83 353 83 363 q 83 632 106 673 q 110 680 128 684 q 206 698 320 698 z m 287 622 l 258 622 q 190 622 181 605 q 175 596 175 534 l 175 453 l 174 436 l 174 418 q 174 383 182 376 q 190 369 226 369 l 253 369 q 340 369 387 404 q 435 438 435 500 l 435 514 q 435 562 396 592 q 358 622 287 622 z"},"|":{"x_min":0,"x_max":318,"ha":318,"o":"m 170 -161 l 144 -161 q 126 -161 126 -111 l 126 701 q 126 747 149 747 l 175 747 q 193 747 193 696 l 193 677 l 193 667 l 193 570 l 192 541 l 192 21 l 193 2 l 193 -46 l 193 -85 q 193 -140 189 -150 q 185 -161 170 -161 z"},"t":{"x_min":0,"x_max":350,"ha":350,"o":"m 303 42 l 303 34 q 303 13 288 5 q 272 -2 233 -2 q 193 -2 167 15 q 141 32 129 58 q 110 99 110 241 q 110 382 101 409 q 92 437 72 442 q 41 451 41 473 q 41 496 70 504 q 98 513 104 522 q 109 532 113 571 q 117 609 124 625 q 135 654 157 654 l 164 654 q 179 654 185 641 q 191 629 194 592 q 197 554 210 533 q 223 513 259 508 q 296 504 296 478 q 296 451 255 445 q 215 438 206 419 q 192 387 192 259 q 192 131 208 103 q 225 75 256 69 q 303 61 303 42 z"},"M":{"x_min":0,"x_max":800,"ha":800,"o":"m 104 27 q 71 27 71 70 l 71 92 q 71 118 75 203 q 80 288 86 516 l 88 618 l 91 642 q 98 683 144 683 q 184 683 234 578 q 256 535 319 384 q 382 233 386 224 l 396 207 q 409 207 483 384 q 558 561 579 597 q 628 681 660 681 q 703 681 709 636 l 711 611 l 712 586 l 712 561 q 715 474 729 108 l 730 86 l 730 64 q 730 41 721 31 q 712 22 695 22 q 677 22 667 38 q 657 53 650 101 q 643 149 637 332 q 632 516 621 516 q 609 516 532 324 q 454 133 437 100 q 420 66 387 66 q 368 66 345 117 l 326 164 q 298 230 287 258 l 258 328 q 182 510 173 510 q 160 510 153 327 q 146 144 140 103 q 129 27 104 27 z"},"g":{"x_min":0,"x_max":553,"ha":553,"o":"m 484 19 q 484 -74 430 -131 q 402 -160 362 -177 q 322 -193 277 -193 l 247 -193 q 193 -193 137 -162 q 82 -131 82 -97 q 82 -74 105 -74 q 114 -74 167 -98 q 220 -123 263 -123 q 338 -123 376 -72 q 406 -32 406 44 q 406 60 396 60 q 395 60 379 50 q 334 22 283 22 q 278 18 271 18 q 224 18 89 179 q 73 234 73 288 q 73 290 73 291 l 73 306 q 73 393 125 459 q 178 526 258 526 q 302 526 333 509 q 345 503 365 488 q 384 474 391 474 l 406 488 q 415 497 436 497 q 456 497 463 485 q 469 473 469 415 l 469 387 l 468 373 l 467 315 q 467 246 476 154 q 484 62 484 19 z m 392 254 l 392 294 q 392 405 329 441 q 305 455 287 455 l 272 455 q 224 455 189 404 q 155 354 155 282 l 155 259 q 156 247 156 242 q 156 181 189 135 q 223 89 262 89 l 271 89 q 325 89 359 138 q 392 187 392 254 z"},"j":{"x_min":0,"x_max":263,"ha":263,"o":"m 90 658 l 90 671 l 91 672 q 91 674 91 676 l 91 682 l 93 692 q 93 716 120 716 l 123 717 l 136 719 l 148 719 l 166 716 q 184 716 184 693 l 184 691 l 185 689 l 186 675 l 186 666 l 186 665 q 186 663 186 661 l 185 654 l 182 640 q 182 620 162 620 q 154 618 150 618 l 142 617 l 126 617 l 114 619 q 90 619 90 658 z m 163 506 q 180 484 180 249 l 180 58 q 180 -85 149 -137 q 133 -165 101 -183 q 69 -202 33 -202 l 24 -202 q -29 -202 -29 -172 l -29 -164 q -29 -143 -14 -134 q -8 -131 19 -128 q 71 -123 86 -74 q 98 -38 98 161 q 98 179 98 197 l 97 215 l 97 260 l 98 269 l 98 287 l 97 314 q 96 323 96 332 l 83 463 q 83 493 90 502 q 98 511 128 511 q 159 511 163 506 z"},"i":{"x_min":0,"x_max":254,"ha":254,"o":"m 82 661 l 82 673 l 82 675 l 83 689 q 84 691 84 693 q 84 720 112 720 l 115 721 l 132 723 l 135 723 l 137 722 l 148 721 q 154 720 156 720 q 175 720 175 695 q 176 692 176 690 l 177 681 l 177 667 q 177 622 146 622 l 134 620 l 117 620 q 107 623 103 623 q 82 623 82 661 z m 78 481 q 78 503 87 509 q 97 514 125 514 l 142 514 q 163 514 167 479 q 169 464 169 374 l 169 229 l 170 192 l 171 169 q 172 157 172 152 l 174 128 l 175 92 l 175 75 q 175 28 168 14 q 164 5 135 5 l 119 5 q 93 5 88 18 q 83 31 83 62 l 83 102 l 84 114 l 85 149 l 86 161 q 87 167 87 179 l 87 191 l 87 314 l 87 332 l 87 344 l 85 379 q 85 385 85 391 l 79 458 l 78 470 z"},"y":{"x_min":0,"x_max":497,"ha":497,"o":"m 206 36 q 206 76 128 265 q 51 454 51 479 q 51 504 78 504 q 116 504 141 455 q 156 425 204 285 q 251 145 257 145 q 264 145 319 305 q 374 465 378 473 q 395 507 422 507 q 423 507 423 507 q 449 507 450 491 q 450 475 360 217 q 271 -41 255 -73 q 195 -195 114 -195 q 69 -195 69 -178 q 69 -151 82 -138 q 86 -134 106 -125 q 126 -116 130 -114 q 157 -100 174 -75 q 206 -29 206 36 z"},"@":{"x_min":0,"x_max":831,"ha":831,"o":"m 484 443 q 486 443 487 443 l 506 447 l 524 458 l 541 463 q 573 463 573 428 l 571 404 l 565 354 q 558 281 558 247 q 558 213 577 199 l 592 192 q 635 192 672 245 q 709 299 709 370 q 709 489 634 562 q 559 637 433 637 q 371 637 314 611 q 230 574 176 493 q 122 412 122 302 q 122 239 144 177 q 166 114 210 69 q 255 24 311 0 q 367 -23 431 -23 q 496 -23 560 0 q 578 7 608 21 q 639 36 653 36 q 667 36 667 25 l 659 11 q 635 -16 565 -42 q 496 -67 434 -67 l 405 -67 q 340 -67 272 -36 q 147 21 94 148 q 64 220 64 298 q 64 475 180 589 q 286 694 448 694 q 574 694 665 614 q 764 524 764 378 q 764 334 750 284 q 737 233 708 195 q 650 121 574 121 q 549 121 531 135 l 506 163 l 490 158 l 448 135 q 413 119 381 119 q 319 119 282 173 q 255 212 255 271 q 255 350 302 406 q 349 463 406 463 l 429 459 l 450 451 q 451 450 451 450 l 447 450 q 397 450 358 399 q 306 332 306 261 l 306 243 q 306 203 326 178 q 346 153 373 153 l 375 153 l 379 154 q 420 154 462 224 q 504 293 504 361 l 506 383 l 506 399 q 506 429 484 443 z"},".":{"x_min":0,"x_max":274,"ha":274,"o":"m 166 112 q 188 112 188 93 l 189 84 l 191 70 l 191 54 q 191 21 181 9 q 171 -3 135 -3 l 131 -3 l 129 -2 q 88 -2 88 17 q 85 29 85 32 l 84 42 l 84 60 l 86 77 q 86 113 122 113 q 126 114 128 114 l 136 115 l 149 115 l 151 114 l 163 113 q 165 112 166 112 z"},"p":{"x_min":0,"x_max":559,"ha":559,"o":"m 92 379 q 92 470 96 480 q 105 501 139 501 q 157 501 166 479 q 175 457 181 457 q 182 457 199 471 q 259 518 308 518 l 330 518 q 361 518 395 498 q 428 479 451 447 q 497 386 497 292 l 497 267 q 496 214 479 163 q 446 63 373 24 q 329 1 288 1 q 247 1 208 15 q 168 28 166 28 q 157 28 157 -43 l 159 -119 q 159 -163 151 -176 q 142 -189 115 -189 q 88 -189 81 -179 q 75 -169 75 -137 l 75 -125 q 75 -109 75 -92 l 76 -59 q 77 -47 77 -37 l 79 18 q 79 21 81 50 l 83 95 q 86 183 86 184 l 88 229 q 90 264 90 275 l 91 298 l 92 344 z m 413 248 l 413 272 q 413 346 380 397 q 347 448 297 448 l 292 448 q 244 448 209 408 q 174 368 174 297 l 173 286 l 173 269 l 173 229 q 173 148 196 112 q 226 66 279 66 l 289 66 q 341 66 377 118 q 413 170 413 248 z"},"X":{"x_min":0,"x_max":600,"ha":600,"o":"m 69 685 q 69 702 108 702 q 147 702 169 674 q 180 660 241 553 q 301 447 305 447 q 308 447 370 555 q 433 663 449 683 q 465 703 497 703 q 530 703 530 696 q 530 681 445 538 q 359 395 359 361 q 359 349 453 189 q 546 30 546 10 q 546 1 525 1 l 511 1 q 467 1 448 26 q 430 50 365 166 q 301 281 294 281 q 292 281 219 157 q 146 32 138 23 q 120 2 74 2 q 54 2 54 10 q 54 22 149 183 q 244 345 244 359 q 244 374 156 526 q 69 677 69 685 z"},"*":{"x_min":0,"x_max":448,"ha":448,"o":"m 220 707 l 229 707 q 259 707 259 675 l 249 583 q 249 578 258 578 q 258 578 292 598 q 326 617 338 617 q 372 617 372 597 q 372 573 353 553 q 347 547 325 539 q 303 531 303 523 q 304 518 304 510 q 304 501 320 483 q 335 465 335 444 q 335 422 323 422 q 321 422 317 423 l 304 426 q 282 430 275 430 q 269 430 259 415 q 250 400 246 400 l 241 400 l 235 401 l 220 404 q 208 402 202 402 q 193 402 189 416 q 185 431 174 431 l 146 428 q 126 426 122 426 q 106 426 106 454 l 141 505 q 154 523 154 531 q 154 535 133 543 q 112 551 104 557 q 78 576 78 600 l 78 607 q 78 622 104 622 q 118 622 154 601 q 190 581 194 581 q 202 581 202 590 q 202 600 200 618 l 194 683 q 194 707 220 707 z"},"Y":{"x_min":0,"x_max":585,"ha":585,"o":"m 76 702 l 86 702 q 123 702 147 667 q 170 631 231 510 q 292 389 296 389 q 301 389 366 516 q 431 642 446 665 q 472 701 503 701 q 534 701 534 689 l 534 682 q 534 676 455 529 q 377 382 357 338 q 337 294 337 244 l 336 218 q 336 206 336 193 l 335 167 q 335 167 335 89 q 335 29 332 15 q 328 1 310 1 l 275 1 q 255 1 251 11 q 248 21 248 151 q 248 282 239 309 q 230 336 140 504 q 50 673 50 688 q 50 702 76 702 z"},"c":{"x_min":0,"x_max":505,"ha":505,"o":"m 283 513 q 350 513 401 485 q 453 457 453 422 q 453 388 419 388 q 407 388 362 417 q 317 445 274 445 q 211 445 173 394 q 134 343 134 259 q 134 174 175 122 q 215 70 282 70 q 326 70 364 92 q 430 130 438 130 q 460 130 460 110 l 460 101 q 460 65 399 32 q 339 -1 278 -1 l 266 -1 q 220 -1 178 18 q 90 59 61 161 q 49 204 49 258 q 49 365 113 440 q 143 475 186 494 q 229 513 271 513 z"},"!":{"x_min":0,"x_max":301,"ha":301,"o":"m 148 711 l 165 711 q 186 711 193 704 q 200 696 200 658 l 200 634 l 200 627 q 200 619 200 610 l 199 598 l 199 580 l 191 373 l 190 367 l 189 331 l 188 319 l 185 236 q 185 193 160 193 l 149 193 q 124 193 124 229 l 123 240 q 122 252 122 258 l 122 270 l 121 276 l 120 300 q 120 306 120 314 q 119 323 118 341 q 117 358 117 365 l 112 495 q 112 501 112 507 l 111 525 q 111 531 111 537 l 109 578 l 109 590 l 109 608 l 109 667 q 109 699 117 705 q 126 711 148 711 z m 201 28 q 201 0 174 0 q 170 0 168 0 l 162 -1 l 147 -1 l 146 -1 l 135 0 q 133 1 132 1 q 107 1 107 28 l 104 41 q 104 43 104 45 l 104 49 l 104 69 l 106 82 q 106 109 132 109 l 133 109 l 135 110 l 149 111 l 158 111 l 167 110 l 178 108 q 200 108 200 84 l 202 79 l 204 59 l 204 49 l 203 47 l 202 32 q 201 30 201 28 z"},"/":{"x_min":0,"x_max":396,"ha":396,"o":"m 375 726 l 375 719 q 375 711 354 659 q 333 606 317 566 q 302 525 285 479 l 278 462 q 275 455 271 443 q 266 432 263 424 q 261 417 255 403 q 250 389 247 381 q 244 374 239 360 q 233 346 228 332 q 223 318 219 307 l 208 281 l 202 264 l 195 247 q 188 226 181 207 q 174 188 153 135 l 129 74 q 118 45 116 40 l 110 23 q 102 3 97 -10 q 92 -23 86 -37 q 75 -64 51 -64 l 43 -64 q 16 -64 16 -57 q 16 -16 294 680 q 315 733 339 733 l 348 733 q 375 733 375 726 z"},"[":{"x_min":0,"x_max":339,"ha":339,"o":"m 261 736 q 296 736 296 716 q 296 690 283 683 q 278 680 235 674 q 191 668 183 646 q 174 624 174 293 q 174 -37 183 -60 q 192 -83 245 -90 q 297 -97 297 -119 l 297 -129 q 297 -150 272 -150 l 229 -150 l 194 -148 q 171 -147 151 -147 q 131 -147 118 -138 q 106 -129 103 -103 q 99 -76 99 135 l 99 449 l 99 486 l 99 656 q 99 702 111 717 q 123 732 157 732 l 250 736 z"},"6":{"x_min":0,"x_max":561,"ha":561,"o":"m 450 643 q 450 623 400 623 q 256 623 197 507 q 175 466 175 433 q 175 399 199 399 q 203 399 222 406 q 242 414 254 418 q 266 421 301 421 q 302 421 303 421 q 337 421 375 403 q 448 369 478 291 q 496 246 496 194 q 496 110 446 56 q 397 1 315 1 l 302 1 q 254 1 209 23 q 118 69 80 188 q 62 242 62 315 l 63 328 q 63 398 87 467 q 112 536 150 581 q 188 626 240 653 q 293 680 354 680 l 364 680 q 399 680 425 670 q 450 661 450 643 z m 404 200 l 404 225 q 404 289 372 331 q 339 374 295 374 l 283 374 q 230 374 200 334 q 169 295 169 239 l 169 219 q 169 152 205 107 q 241 61 286 61 l 294 61 q 339 61 372 103 q 404 144 404 200 z"},"r":{"x_min":0,"x_max":371,"ha":371,"o":"m 156 103 l 155 40 q 155 19 145 10 q 135 2 97 2 q 74 2 74 25 l 74 215 l 74 223 l 74 257 l 74 290 l 74 366 q 74 463 83 482 q 91 500 117 500 q 144 500 154 491 q 165 482 170 465 q 176 448 180 448 q 184 448 198 462 q 244 508 289 508 q 346 508 346 473 l 346 466 q 346 438 334 428 q 330 424 286 424 q 243 424 218 410 q 194 395 175 354 q 156 313 156 153 l 156 128 z"},"2":{"x_min":0,"x_max":555,"ha":555,"o":"m 64 28 l 64 42 q 64 98 236 270 q 321 355 343 386 q 387 447 387 504 q 387 562 346 595 q 316 620 275 620 q 234 620 205 605 q 175 590 142 560 q 109 530 91 530 q 69 530 69 562 q 69 579 87 604 q 104 629 146 657 q 206 698 273 698 l 290 698 q 327 698 364 684 q 431 657 459 592 q 475 557 475 518 q 475 447 428 378 q 398 334 290 230 q 182 126 182 94 q 182 80 306 80 q 431 80 459 72 q 488 65 488 41 q 488 3 453 3 l 349 7 l 239 6 q 99 6 87 9 q 64 14 64 28 z"},"{":{"x_min":0,"x_max":360,"ha":360,"o":"m 145 471 l 143 521 q 142 545 142 570 q 142 650 181 693 q 220 736 286 736 l 297 736 q 316 736 316 723 q 316 702 308 691 q 300 681 271 668 q 242 655 229 632 q 216 609 216 546 l 219 448 q 219 360 174 321 q 166 313 150 303 q 135 293 135 291 q 135 289 148 280 q 161 272 176 260 q 190 248 205 217 q 220 186 220 104 q 220 104 218 66 l 217 30 q 217 -28 230 -51 q 244 -74 264 -84 l 284 -93 q 297 -98 301 -102 q 314 -114 314 -137 q 314 -156 292 -156 q 207 -156 168 -98 q 143 -60 143 40 l 146 138 q 146 187 129 214 q 113 241 77 255 q 61 261 55 266 q 50 271 50 293 q 50 315 83 328 q 117 340 131 367 q 145 394 145 471 z"},"9":{"x_min":0,"x_max":560,"ha":560,"o":"m 108 58 q 108 78 160 78 q 259 78 314 128 q 349 160 366 201 q 384 241 384 270 q 384 299 360 299 q 354 299 336 292 q 317 285 306 282 q 294 279 263 279 q 232 279 194 294 q 116 327 83 412 q 66 455 66 496 l 66 508 q 66 593 117 646 q 168 700 247 701 q 357 701 427 617 q 461 577 479 519 q 498 460 498 398 l 498 373 q 498 315 478 248 q 435 109 328 52 q 270 21 216 21 l 195 21 q 140 21 120 39 q 108 49 108 58 z m 157 497 l 157 477 q 157 410 194 362 q 222 327 265 327 l 278 327 q 329 327 360 364 q 391 400 391 447 l 392 457 l 392 481 q 392 549 356 595 q 320 641 276 641 l 267 641 q 222 641 189 599 q 157 558 157 497 z"}," ":{"x_min":0,"x_max":297,"ha":297,"o":""},"I":{"x_min":0,"x_max":292,"ha":292,"o":"m 86 620 l 86 636 q 86 682 104 697 q 111 703 147 703 l 163 703 q 188 703 194 693 q 207 674 207 637 l 207 629 q 207 616 198 576 q 190 536 190 500 l 190 412 l 189 395 q 189 395 189 231 l 190 223 l 190 206 q 190 173 198 133 q 206 92 206 57 q 206 21 189 7 q 182 1 146 1 l 131 1 q 106 1 100 11 q 86 30 86 67 l 86 76 q 86 83 94 128 q 103 173 103 226 l 103 488 q 103 537 94 571 q 86 604 86 620 z"},"H":{"x_min":0,"x_max":667,"ha":667,"o":"m 591 87 q 591 35 586 25 q 582 15 566 15 l 551 15 q 515 15 510 43 q 500 92 500 235 q 500 319 483 328 q 449 347 339 347 q 229 347 207 329 q 193 318 193 200 q 193 82 177 46 q 168 27 130 27 q 92 27 88 60 q 81 113 81 345 l 81 364 l 81 456 q 81 475 80 510 l 79 527 q 77 553 77 561 l 77 593 l 78 609 q 78 661 81 671 q 87 688 118 688 q 150 688 159 664 q 167 640 167 528 q 167 416 174 406 q 191 381 314 381 q 437 381 461 401 q 475 412 475 516 q 475 620 485 651 q 495 682 533 682 q 571 682 577 657 q 587 611 587 442 l 587 191 l 591 104 z"},"4":{"x_min":0,"x_max":566,"ha":566,"o":"m 370 4 q 353 4 348 13 q 344 21 344 86 q 344 151 332 163 q 312 181 207 181 q 101 181 73 189 q 54 195 54 226 q 54 256 80 296 q 215 508 319 651 q 344 686 357 692 q 371 698 403 698 q 426 698 426 637 l 425 626 q 425 616 425 605 l 424 583 q 423 572 423 562 l 422 529 l 420 443 q 420 433 420 422 q 420 294 429 278 q 438 261 470 252 q 503 244 503 216 q 503 198 496 193 q 489 188 465 182 q 441 176 434 168 q 427 161 427 117 l 428 65 q 428 24 421 14 q 415 4 370 4 z m 345 562 q 345 569 344 569 l 342 569 q 340 569 319 536 q 299 503 215 382 q 131 260 131 257 q 131 253 206 253 l 249 253 l 253 254 l 267 254 l 285 255 q 319 255 328 262 q 337 270 337 304 l 339 332 l 339 351 l 339 360 q 339 369 339 378 l 340 387 l 340 396 l 340 406 l 340 415 l 341 434 l 341 443 l 342 448 l 342 457 l 343 499 q 343 506 343 513 l 344 518 l 344 527 l 345 545 z"},"~":{"x_min":0,"x_max":576,"ha":576,"o":"m 528 396 l 528 390 q 528 350 487 312 q 446 273 398 273 l 393 273 q 350 273 282 315 q 215 357 181 357 q 146 357 113 320 q 80 284 68 284 q 49 284 49 304 l 49 310 q 49 351 91 389 q 134 427 179 427 l 185 427 l 191 427 q 232 427 302 385 q 370 343 402 343 q 402 343 402 343 q 434 344 464 380 q 494 416 504 416 q 528 416 528 396 z"},"D":{"x_min":0,"x_max":674,"ha":674,"o":"m 104 669 q 104 691 126 697 q 149 702 245 702 l 287 702 q 367 702 418 684 q 470 666 511 624 q 552 581 577 517 q 602 453 602 375 l 602 350 q 602 272 576 202 q 550 132 504 84 q 458 36 402 19 q 346 2 263 2 l 243 2 l 232 2 l 212 2 q 138 2 118 11 q 104 18 104 39 l 104 49 l 106 115 l 107 137 l 109 226 q 109 237 109 249 l 109 282 l 109 451 l 109 484 l 104 626 l 104 648 z m 296 628 l 266 628 q 200 628 194 609 q 193 605 193 579 l 194 548 l 194 532 l 195 500 l 195 452 l 195 436 l 195 291 l 195 274 l 195 258 l 194 242 q 194 234 194 227 l 194 218 q 194 210 194 203 l 192 154 q 192 146 192 139 l 191 107 q 191 78 252 78 l 290 78 q 391 78 452 154 q 480 190 495 242 q 510 294 510 343 l 510 380 q 510 381 510 383 q 510 435 493 482 q 441 628 296 628 z"},"^":{"x_min":0,"x_max":532,"ha":532,"o":"m 470 360 l 462 360 q 428 360 402 395 q 385 417 327 522 q 270 626 265 626 q 260 626 207 527 q 153 427 128 394 q 103 360 71 360 l 63 360 q 49 360 49 366 l 49 370 q 49 392 219 673 q 242 710 265 710 q 289 710 307 684 q 325 658 375 565 q 425 472 455 422 q 485 372 485 366 q 485 360 470 360 z"},"0":{"x_min":0,"x_max":564,"ha":564,"o":"m 272 708 l 291 708 q 291 708 292 708 q 340 708 377 683 q 454 632 483 506 q 499 438 499 364 l 499 353 l 498 342 q 498 182 440 87 q 382 -8 284 -8 l 275 -8 q 229 -8 188 17 q 67 92 67 355 q 67 522 129 620 q 155 659 194 683 q 232 708 272 708 z m 412 332 l 412 382 q 412 490 378 563 q 344 637 285 637 l 278 637 q 222 637 188 561 q 153 486 153 368 l 153 326 q 153 212 187 140 q 205 101 228 82 q 251 63 275 63 l 287 63 q 342 63 377 138 q 412 213 412 332 z"},"F":{"x_min":0,"x_max":521,"ha":521,"o":"m 84 592 l 84 632 q 84 655 91 668 q 98 681 128 689 q 157 698 335 698 l 418 699 l 445 699 q 485 699 485 673 q 485 647 470 642 q 435 631 320 631 q 205 631 189 618 q 173 605 173 486 q 173 425 198 414 q 206 411 281 406 q 357 402 384 396 q 421 386 421 355 q 421 333 399 325 q 392 323 305 314 q 218 306 201 294 q 175 278 175 185 l 174 137 q 174 69 167 45 q 159 21 134 21 q 109 21 101 26 q 92 31 92 45 q 92 58 96 119 q 99 179 99 225 q 99 270 92 404 q 84 538 84 592 z"},"`":{"x_min":0,"x_max":367,"ha":367,"o":"m 121 733 l 128 733 q 160 733 176 714 q 184 706 197 679 q 210 652 232 625 q 254 597 254 581 l 254 579 q 254 569 231 569 l 229 569 q 186 569 112 668 q 78 714 78 721 l 78 723 q 78 733 121 733 z"},"k":{"x_min":0,"x_max":505,"ha":505,"o":"m 209 241 q 178 241 178 171 q 178 100 161 55 q 153 32 127 32 q 87 32 82 60 q 72 115 72 478 l 72 650 l 71 696 l 71 710 q 71 733 107 733 q 144 733 149 701 q 154 668 154 490 q 154 311 167 311 q 183 311 255 379 q 327 447 353 466 q 378 485 404 485 q 430 485 430 476 q 430 466 361 396 q 292 325 292 295 q 292 266 386 143 q 479 21 479 18 q 479 9 440 9 q 400 9 380 29 q 359 49 290 145 q 220 241 209 241 z"},"u":{"x_min":0,"x_max":542,"ha":542,"o":"m 475 380 l 471 237 l 471 210 l 471 171 q 471 51 468 41 q 460 19 413 19 q 399 19 394 33 q 382 62 380 62 q 374 62 354 46 q 257 -1 231 -1 q 229 -1 228 0 q 135 0 92 80 q 68 124 68 288 q 68 301 68 314 l 68 341 q 68 358 67 366 l 66 379 l 65 404 l 65 464 q 65 503 86 503 q 137 503 144 483 q 151 462 151 312 q 151 161 166 126 q 192 65 259 65 q 290 65 321 85 q 352 105 370 139 q 389 174 389 315 q 389 457 397 478 q 404 500 455 500 q 476 500 476 437 l 476 425 l 475 413 z"},"]":{"x_min":0,"x_max":337,"ha":337,"o":"m 100 -150 l 70 -150 q 48 -150 48 -131 q 48 -109 60 -102 q 72 -95 102 -92 q 132 -88 145 -82 q 159 -76 164 -53 q 169 -31 169 296 q 169 622 161 645 q 153 667 125 673 q 112 676 89 679 q 65 681 61 683 q 46 689 46 714 q 46 735 78 735 l 98 735 q 168 735 196 730 q 224 725 231 700 q 238 675 238 294 l 238 258 l 238 -34 q 238 -118 219 -134 q 200 -150 100 -150 z"},"U":{"x_min":0,"x_max":655,"ha":655,"o":"m 582 423 q 582 254 576 203 q 570 152 544 104 q 519 56 463 24 q 408 -8 340 -8 l 322 -8 q 248 -8 195 21 q 142 50 113 100 q 84 150 78 229 q 76 253 76 366 l 76 505 l 77 556 q 77 595 76 605 l 73 670 q 73 690 79 694 q 84 697 112 697 q 139 697 147 690 q 156 683 159 661 q 163 639 163 420 q 163 202 187 152 q 211 102 249 82 q 286 62 337 62 q 388 62 426 90 q 464 118 484 170 q 504 223 504 427 q 504 631 513 667 q 521 697 563 697 q 586 697 586 672 l 582 559 l 582 525 z"},"o":{"x_min":0,"x_max":561,"ha":561,"o":"m 500 278 l 500 252 q 500 207 485 157 q 471 107 442 71 q 380 -7 285 -7 l 277 -7 q 234 -7 195 11 q 120 45 86 141 q 69 189 69 246 l 69 255 l 69 264 q 69 369 126 443 q 156 482 196 503 q 237 523 276 523 l 300 523 q 383 523 444 448 q 468 418 484 372 q 500 325 500 278 z m 415 244 l 415 269 q 415 349 377 401 q 340 454 291 454 l 275 454 q 228 454 191 401 q 154 349 154 277 l 154 247 q 155 235 155 229 q 155 159 195 110 q 234 62 283 62 l 289 62 q 341 62 378 114 q 415 166 415 244 z"},"N":{"x_min":0,"x_max":676,"ha":676,"o":"m 76 34 q 76 46 77 72 l 79 131 l 79 172 q 79 172 79 338 l 79 359 l 79 400 q 79 661 81 667 q 86 689 115 689 q 156 689 191 644 q 212 616 361 394 q 510 172 517 172 q 524 172 524 375 q 524 579 530 636 q 536 693 562 693 l 579 693 q 603 693 603 663 l 603 644 l 600 605 l 599 565 q 598 545 598 493 l 598 358 l 598 296 q 598 72 596 43 q 594 14 573 14 q 527 14 496 52 q 464 91 316 317 q 167 542 159 542 q 154 542 154 315 q 154 88 146 48 q 138 8 105 8 q 76 8 76 34 z"},"+":{"x_min":0,"x_max":589,"ha":589,"o":"m 294 79 l 277 79 q 262 79 262 181 q 262 282 259 286 q 256 290 179 290 q 101 290 89 292 q 77 294 77 313 l 77 323 q 77 350 85 354 q 93 359 175 359 q 257 359 260 362 q 262 364 262 449 q 262 535 265 552 q 268 569 287 569 l 305 569 q 323 569 325 554 q 327 544 327 456 q 327 367 330 363 q 333 360 410 360 q 487 360 500 357 q 513 354 513 335 l 513 326 l 513 316 q 513 295 497 292 q 488 290 410 290 q 332 290 329 287 q 327 284 327 191 q 327 97 323 88 q 319 79 294 79 z"},"G":{"x_min":0,"x_max":694,"ha":694,"o":"m 429 320 q 429 350 537 350 q 584 350 605 333 q 625 317 625 264 q 625 164 611 99 q 606 74 592 62 q 578 50 540 41 q 502 32 500 31 q 417 0 372 0 l 353 0 q 221 0 135 101 q 99 144 77 206 q 56 268 56 340 l 56 361 q 56 432 79 494 q 129 629 244 679 q 301 704 355 704 l 375 704 q 449 704 510 675 q 571 645 588 624 q 605 603 605 593 q 605 558 574 558 q 564 558 526 582 q 487 605 454 617 q 421 629 371 629 q 271 629 210 554 q 149 479 149 351 q 149 223 213 146 q 307 78 375 69 q 434 69 480 105 q 527 141 527 199 q 527 225 513 244 q 498 263 464 279 q 429 294 429 320 z"},"q":{"x_min":0,"x_max":560,"ha":560,"o":"m 452 -189 l 442 -189 q 421 -189 416 -174 q 408 -153 408 -58 q 408 38 396 38 q 395 38 373 26 q 352 15 332 7 q 312 0 270 0 q 228 0 189 20 q 111 60 81 165 q 69 208 69 261 l 69 273 q 69 332 82 371 q 96 410 124 446 q 152 482 188 500 q 223 518 257 518 l 268 518 q 315 518 376 478 q 388 471 392 471 q 396 471 410 484 q 424 498 443 498 q 462 498 469 476 q 476 454 476 351 l 476 316 l 477 271 l 478 259 q 478 248 478 236 l 479 213 q 479 202 479 191 l 481 146 q 483 112 483 102 l 486 13 l 487 -8 q 488 -19 488 -30 l 488 -41 q 491 -85 491 -106 l 492 -128 l 492 -161 q 492 -189 452 -189 z m 395 255 l 395 272 l 395 278 l 395 289 q 394 301 394 306 q 394 370 367 411 q 340 452 285 452 l 275 452 q 226 452 189 400 q 153 349 153 276 l 153 246 q 153 169 191 113 q 222 68 270 68 l 278 68 l 283 69 q 303 69 328 82 q 354 96 369 120 q 395 160 395 255 z"},"d":{"x_min":0,"x_max":560,"ha":560,"o":"m 395 42 q 389 55 386 55 q 383 55 367 43 q 309 -3 254 -3 q 254 -3 253 -3 l 243 -3 q 174 -3 125 56 q 102 85 86 126 q 71 167 71 207 l 71 244 q 71 364 138 445 q 170 484 209 500 q 248 515 289 515 q 329 515 359 503 q 388 491 392 491 q 405 491 405 590 q 405 690 410 704 q 418 729 448 729 q 479 729 485 718 q 492 708 492 675 l 492 618 l 491 607 l 491 574 l 490 530 l 485 431 q 484 408 480 316 q 476 225 476 223 l 476 211 q 475 200 475 188 l 475 177 q 474 165 474 153 l 473 106 q 473 46 465 31 q 458 17 432 17 q 407 17 395 42 z m 269 67 l 283 67 q 306 67 332 83 q 358 100 370 120 q 394 164 394 269 l 395 280 q 395 367 372 404 q 341 454 290 454 l 275 454 q 226 454 190 402 q 154 350 154 278 l 154 242 q 154 169 187 118 q 220 67 269 67 z"},"1":{"x_min":0,"x_max":525,"ha":525,"o":"m 307 2 l 290 2 q 255 2 242 21 q 218 56 218 116 q 218 132 231 167 q 244 202 247 220 q 250 238 250 362 q 250 486 228 536 q 217 559 182 563 q 131 568 131 581 q 131 601 162 621 q 262 685 292 685 q 310 685 316 675 q 323 665 328 629 q 333 593 333 427 q 333 261 335 235 q 337 210 351 170 q 364 130 364 107 l 363 98 l 363 89 q 363 49 339 15 q 330 2 307 2 z"},"5":{"x_min":0,"x_max":555,"ha":555,"o":"m 121 613 q 127 652 139 666 q 161 691 298 691 q 342 691 363 692 l 394 694 q 414 695 424 695 l 438 695 q 464 695 464 679 q 464 638 438 628 q 413 619 315 619 q 217 619 202 598 q 180 568 180 495 q 180 466 186 456 q 192 445 226 445 l 241 447 q 249 447 282 447 q 316 447 357 431 q 444 396 475 311 q 487 275 487 230 q 487 133 429 68 q 397 33 351 13 q 305 -6 259 -6 l 243 -6 q 191 -6 128 23 q 65 52 65 80 l 65 93 q 65 120 99 120 q 105 120 173 85 q 213 65 265 65 q 317 65 361 108 q 405 150 405 221 q 405 292 362 332 q 319 372 236 372 l 151 362 q 127 362 112 380 q 97 398 97 432 q 97 466 121 613 z"}}}
